<?xml version="1.0" encoding="iso-8859-1"?>
<!-- Generator: Adobe Illustrator 19.0.0, SVG Export Plug-In . SVG Version: 6.00 Build 0)  -->
<svg version="1.1" id="Layer_1" xmlns="http://www.w3.org/2000/svg" xmlns:xlink="http://www.w3.org/1999/xlink" x="0px" y="0px"
	 viewBox="0 0 459 459" style="enable-background:new 0 0 459 459;" xml:space="preserve">
<g id="XMLID_188_">
	<g>
		<path d="M229.5,0C102.751,0,0,102.751,0,229.5S102.751,459,229.5,459S459,356.249,459,229.5S356.249,0,229.5,0z M232.105,399.967
			l17.502,17.502c5.858,5.858,5.858,15.355,0,21.213c-5.857,5.858-15.355,5.859-21.213,0l-41.9-41.899
			c-5.858-5.858-5.858-15.355,0-21.213c5.032-5.032,35.134-35.134,41.9-41.899c5.857-5.858,15.355-5.858,21.213,0
			c5.858,5.858,5.858,15.355,0,21.213l-15.015,15.015C309.714,367.207,370,305.267,370,229.5C370,152.028,306.972,89,229.5,89
			S89,152.028,89,229.5c0,8.284-6.716,15-15,15s-15-6.716-15-15C59,135.486,135.486,59,229.5,59S400,135.486,400,229.5
			C400,322.643,324.921,398.568,232.105,399.967z M290.5,214.5c8.284,0,15,6.716,15,15s-6.716,15-15,15h-61c-8.284,0-15-6.716-15-15
			V142c0-8.284,6.716-15,15-15s15,6.716,15,15c0,8.518,0,64.027,0,72.5C253.617,214.5,280.885,214.5,290.5,214.5z"/>
	</g>
</g>
</svg>
